<?xml version="1.0" encoding="utf-8"?>
<!-- Generator: Adobe Illustrator 25.4.1, SVG Export Plug-In . SVG Version: 6.00 Build 0)  -->
<svg version="1.1" id="Capa_1" xmlns="http://www.w3.org/2000/svg" xmlns:xlink="http://www.w3.org/1999/xlink" x="0px" y="0px"
	 viewBox="0 0 510.2 453.5" style="enable-background:new 0 0 510.2 453.5;" xml:space="preserve">
<style type="text/css">
	.st0{fill:#FE0000;}
	.st1{fill:#FCFCFC;}
</style>
<g>
	<path class="st0" d="M500.2,226.3c0-32.5-40.7-63.3-103.1-82.4c14.4-63.6,8-114.2-20.2-130.4c-6.5-3.8-14.1-5.6-22.4-5.6v22.3
		c4.6,0,8.3,0.9,11.4,2.6c13.6,7.8,19.5,37.5,14.9,75.7c-1.1,9.4-2.9,19.3-5.1,29.4c-19.6-4.8-41-8.5-63.5-10.9
		c-13.5-18.5-27.5-35.3-41.6-50c32.6-30.3,63.2-46.9,84-46.9V7.8c-27.5,0-63.5,19.6-99.9,53.6c-36.4-33.8-72.4-53.2-99.9-53.2v22.3
		c20.7,0,51.4,16.5,84,46.6c-14,14.7-28,31.4-41.3,49.9c-22.6,2.4-44,6.1-63.6,11c-2.3-10-4-19.7-5.2-29
		c-4.7-38.2,1.1-67.9,14.6-75.8c3-1.8,6.9-2.6,11.5-2.6V8.3c-8.4,0-16,1.8-22.6,5.6C104.1,30.1,97.8,80.6,112.3,144
		C50.1,163.2,9.6,193.9,9.6,226.3c0,32.5,40.7,63.3,103.1,82.4c-14.4,63.6-8,114.2,20.2,130.4c6.5,3.8,14.1,5.6,22.5,5.6
		c27.5,0,63.5-19.6,99.9-53.6c36.4,33.8,72.4,53.2,99.9,53.2c8.4,0,16-1.8,22.6-5.6c28.1-16.2,34.4-66.7,19.9-130.1
		C459.7,289.5,500.2,258.7,500.2,226.3L500.2,226.3z M370,159.6c-3.7,12.9-8.3,26.2-13.5,39.5c-4.1-8-8.4-16-13.1-24
		c-4.6-8-9.5-15.8-14.4-23.4C343.2,153.8,356.9,156.4,370,159.6L370,159.6z M324.2,266.1c-7.8,13.5-15.8,26.3-24.1,38.2
		c-14.9,1.3-30,2-45.2,2c-15.1,0-30.2-0.7-45-1.9c-8.3-11.9-16.4-24.6-24.2-38c-7.6-13.1-14.5-26.4-20.8-39.8
		c6.2-13.4,13.2-26.8,20.7-39.9c7.8-13.5,15.8-26.3,24.1-38.2c14.9-1.3,30-2,45.2-2c15.1,0,30.2,0.7,45,1.9
		c8.3,11.9,16.4,24.6,24.2,38c7.6,13.1,14.5,26.4,20.8,39.8C338.6,239.6,331.7,253,324.2,266.1L324.2,266.1z M356.5,253.1
		c5.4,13.4,10,26.8,13.8,39.8c-13.1,3.2-26.9,5.9-41.2,8c4.9-7.7,9.8-15.6,14.4-23.7C348.1,269.2,352.4,261.1,356.5,253.1
		L356.5,253.1z M255.1,359.8c-9.3-9.6-18.6-20.3-27.8-32c9,0.4,18.2,0.7,27.5,0.7c9.4,0,18.7-0.2,27.8-0.7
		C273.6,339.5,264.3,350.2,255.1,359.8z M180.7,300.9c-14.2-2.1-27.9-4.7-41-7.9c3.7-12.9,8.3-26.2,13.5-39.5c4.1,8,8.4,16,13.1,24
		S175.8,293.3,180.7,300.9z M254.6,92.8c9.3,9.6,18.6,20.3,27.8,32c-9-0.4-18.2-0.7-27.5-0.7c-9.4,0-18.7,0.2-27.8,0.7
		C236.1,113.1,245.4,102.4,254.6,92.8z M180.6,151.7c-4.9,7.7-9.8,15.6-14.4,23.7c-4.6,8-8.9,16-13,24c-5.4-13.4-10-26.8-13.8-39.8
		C152.5,156.5,166.3,153.8,180.6,151.7L180.6,151.7z M90.1,276.9c-35.4-15.1-58.3-34.9-58.3-50.6s22.9-35.6,58.3-50.6
		c8.6-3.7,18-7,27.7-10.1c5.7,19.6,13.2,40,22.5,60.9c-9.2,20.8-16.6,41.1-22.2,60.6C108.2,284,98.8,280.6,90.1,276.9L90.1,276.9z
		 M143.9,419.8c-13.6-7.8-19.5-37.5-14.9-75.7c1.1-9.4,2.9-19.3,5.1-29.4c19.6,4.8,41,8.5,63.5,10.9c13.5,18.5,27.5,35.3,41.6,50
		c-32.6,30.3-63.2,46.9-84,46.9C150.7,422.4,146.9,421.5,143.9,419.8L143.9,419.8z M381.1,343.6c4.7,38.2-1.1,67.9-14.6,75.8
		c-3,1.8-6.9,2.6-11.5,2.6c-20.7,0-51.4-16.5-84-46.6c14-14.7,28-31.4,41.3-49.9c22.6-2.4,44-6.1,63.6-11
		C378.2,324.6,380,334.3,381.1,343.6z M419.6,276.9c-8.6,3.7-18,7-27.7,10.1c-5.7-19.6-13.2-40-22.5-60.9
		c9.2-20.8,16.6-41.1,22.2-60.6c9.9,3.1,19.3,6.5,28.1,10.2c35.4,15.1,58.3,34.9,58.3,50.6C477.9,242,455,261.9,419.6,276.9
		L419.6,276.9z"/>
	<path class="st0" d="M354.4,7.9"/>
</g>
<polygon class="st1" points="225.1,177 225.1,275.2 310.1,226.1 "/>
</svg>
